# xmcd
#
# Track frame offsets:
#	150
#	13215
#	33433
#	45093
#	64695
#	73032
#	90422
#	102871
#	125481
#	145728
#	158699
#	170479
#	194484
#	207674
#	246209
#	259663
#	271723
#	296637
#	308959
#	319199
#	342089
#
# Disc length: 4732 seconds
#
# Revision: 0
# Processed by: cddbd v1.5.2PL0 Copyright (c) Steve Scherf et al.
# Submitted via: EZCDAudioConverter 7.0.8.1
#
DISCID=2f127a15
DTITLE=Various Artist - I love blues
DYEAR=2009
DGENRE=Blues
TTITLE0=Muddy Waters - Mannish Boy
TTITLE1=B.B.King and Vermon Reid - All you ever give me is blues
TTITLE2=Ray Charles and Hank Williams, Jr - Two Old Cats Like Us
TTITLE3=B.B.King and U2 - When loves come to town
TTITLE4=Stevie Ray Vaughan and Double Trouble - Scuttle buttin'
TTITLE5=B.B. King and Irma Thomas - We're Gonna Make It
TTITLE6=Redbone - The witch queen of New Orleans
TTITLE7=B.B.King and Dianne Schour - Spirit in the dark
TTITLE8=Gary Moore - That Kind Of Woman
TTITLE9=B.B.King and Garry Moore - Since i met you baby
TTITLE10=Jeff Beck - Got to Hurry
TTITLE11=B.B.King and Robert Gray - Playing with my friends
TTITLE12=Gary Moore - Walking By My Self
TTITLE13=B.B.King and Stivie Wonder - To know is to love you
TTITLE14=John Lee Hooker - One burbon,one schotch,one beer
TTITLE15=B.B.King - One kind favor
TTITLE16=Bobby Bland - Let the good times roll
TTITLE17=Stevie Ray Vaughan and Double Trouble - Look a little sister
TTITLE18=John Lee Hooker - Dimples
TTITLE19=John Mayall - Baby What You Want Me to Do
TTITLE20=Muddy Waters - Hoochie Coochie Man
EXTD=
EXTT0=
EXTT1=
EXTT2=
EXTT3=
EXTT4=
EXTT5=
EXTT6=
EXTT7=
EXTT8=
EXTT9=
EXTT10=
EXTT11=
EXTT12=
EXTT13=
EXTT14=
EXTT15=
EXTT16=
EXTT17=
EXTT18=
EXTT19=
EXTT20=
PLAYORDER=
